<?xml version="1.0" encoding="UTF-8" standalone="no"?>
<!-- Created with Inkscape (http://www.inkscape.org/) -->
<svg
   xmlns:dc="http://purl.org/dc/elements/1.1/"
   xmlns:cc="http://creativecommons.org/ns#"
   xmlns:rdf="http://www.w3.org/1999/02/22-rdf-syntax-ns#"
   xmlns:svg="http://www.w3.org/2000/svg"
   xmlns="http://www.w3.org/2000/svg"
   xmlns:sodipodi="http://sodipodi.sourceforge.net/DTD/sodipodi-0.dtd"
   xmlns:inkscape="http://www.inkscape.org/namespaces/inkscape"
   width="16"
   height="16"
   id="svg2"
   sodipodi:version="0.32"
   inkscape:version="0.46"
   version="1.0"
   sodipodi:docname="choco.svg"
   inkscape:output_extension="org.inkscape.output.svg.inkscape">
  <defs
     id="defs4">
    <inkscape:perspective
       sodipodi:type="inkscape:persp3d"
       inkscape:vp_x="0 : 526.18109 : 1"
       inkscape:vp_y="0 : 1000 : 0"
       inkscape:vp_z="744.09448 : 526.18109 : 1"
       inkscape:persp3d-origin="372.04724 : 350.78739 : 1"
       id="perspective10" />
  </defs>
  <sodipodi:namedview
     id="base"
     pagecolor="#ffffff"
     bordercolor="#666666"
     borderopacity="1.0"
     inkscape:pageopacity="0.0"
     inkscape:pageshadow="2"
     inkscape:zoom="31.678384"
     inkscape:cx="7.0479698"
     inkscape:cy="6.3016232"
     inkscape:document-units="px"
     inkscape:current-layer="layer1"
     showgrid="false"
     inkscape:window-width="1277"
     inkscape:window-height="1003"
     inkscape:window-x="-4"
     inkscape:window-y="-4" />
  <metadata
     id="metadata7">
    <rdf:RDF>
      <cc:Work
         rdf:about="">
        <dc:format>image/svg+xml</dc:format>
        <dc:type
           rdf:resource="http://purl.org/dc/dcmitype/StillImage" />
      </cc:Work>
    </rdf:RDF>
  </metadata>
  <g
     inkscape:label="Capa 1"
     inkscape:groupmode="layer"
     id="layer1">
    <path
       style="opacity:1;fill:#803300;fill-opacity:1;fill-rule:nonzero;stroke:#5e0300;stroke-width:1.29999994999999990;stroke-linecap:round;stroke-linejoin:miter;stroke-miterlimit:4;stroke-dasharray:none;stroke-opacity:1"
       id="path3155"
       d="M 2.4183646,10.41986 C 2.4166665,10.51772 2.4054412,10.616585 2.4166357,10.714273 C 2.4207844,10.750478 2.4285298,10.786179 2.4344769,10.822132 C 2.536859,11.198471 2.7660184,11.52207 3.0055187,11.823379 C 3.1582312,11.987929 3.3113365,12.17082 3.5200146,12.266935 C 3.5461173,12.278957 3.5738105,12.287173 3.6007084,12.297292 C 3.7808902,12.343594 3.9700002,12.346447 4.1540273,12.327367 C 4.3780695,12.287028 4.5787361,12.175906 4.7761655,12.068111 C 4.8354806,12.035726 5.0007635,11.921597 4.9535687,11.969968 C 4.9038433,12.020933 4.8300263,12.040802 4.768255,12.076219 C 5.0225607,11.915162 5.2628693,11.718707 5.4337799,11.4676 C 5.4652974,11.421294 5.490957,11.371261 5.5195456,11.323091 C 5.6703402,11.032287 5.6960184,10.708228 5.7120683,10.387121 C 5.7146527,10.012439 5.6128909,9.6506351 5.5057571,9.2951663 C 5.3860145,8.8452401 5.1533685,8.4405219 4.9403329,8.0305784 C 4.7494211,7.6732614 4.6109096,7.2923933 4.4796024,6.9101942 C 4.4125987,6.710019 4.3395656,6.5120583 4.2661203,6.3142439 C 4.2413535,6.2375879 4.2036717,6.1656873 4.1831649,6.0876034 C 4.1636048,6.0131243 4.164111,5.9929918 4.1541128,5.9126065 C 4.1331209,5.5960222 4.1367909,5.278225 4.1352623,4.9610715 C 4.1354764,4.654495 4.1322953,4.3479248 4.1278313,4.0413842 C 4.1247335,3.9031359 4.121855,3.7648847 4.1193464,3.6266241 C 4.1162254,3.5000975 4.1501954,3.3760215 4.1841999,3.2552212 C 4.2279076,3.1089198 4.2920367,2.9705079 4.3615404,2.8350235 C 4.4215953,2.7246289 4.4928407,2.6210911 4.5748484,2.5260001 C 4.6392831,2.4458645 4.7141037,2.3755456 4.7938827,2.3110445 C 5.0228054,2.1394611 5.2777525,2.0083068 5.5254618,1.8665012 C 5.6913593,1.776179 5.8682327,1.7125399 6.0447452,1.6468707 C 6.3314016,1.541626 6.6293354,1.4737377 6.9286689,1.416426 C 7.281294,1.3455134 7.6396596,1.316281 7.9982784,1.2989739 C 8.2787206,1.2930313 8.5604429,1.2712784 8.8398286,1.3032912 C 8.8816353,1.3132776 8.9244168,1.3198234 8.9652487,1.3332503 C 9.0350918,1.3562172 9.2128425,1.4382977 9.27323,1.4667417 C 9.4777723,1.5630861 9.6769334,1.6697608 9.8771259,1.7747077 C 10.232902,1.9685577 10.586137,2.1686636 10.928647,2.3852837 C 11.142543,2.5252461 11.23574,2.6885744 11.32753,2.9193657 C 11.437956,3.2064263 11.461552,3.5131639 11.477987,3.8172326 C 11.489393,4.1837139 11.491437,4.550454 11.493342,4.9170928 C 11.493513,5.2066207 11.495968,5.4961385 11.496715,5.7856639 C 11.496922,5.8263978 11.497111,5.8671317 11.497336,5.9078655 C 11.497803,5.9924482 11.500624,6.051052 11.491772,6.1350835 C 11.479329,6.2532054 11.449108,6.3686209 11.420634,6.4835599 C 11.36005,6.7545078 11.226888,7.0001236 11.0901,7.2390838 C 10.988906,7.404012 10.888582,7.5708605 10.772899,7.7262917 C 10.717593,7.8006013 10.657062,7.8690764 10.596929,7.9393498 C 10.466885,8.073442 10.350865,8.2174611 10.248306,8.3732307 C 10.168908,8.499613 10.110159,8.6375553 10.046197,8.7721431 C 9.9606447,8.945227 9.8836514,9.1222181 9.8043026,9.2981792 C 9.7440317,9.4247358 9.6855626,9.5517602 9.6316146,9.6811433 C 9.588578,9.795931 9.5422907,9.9096675 9.5035017,10.02598 C 9.4658832,10.1476 9.4591639,10.275075 9.4542304,10.401376 C 9.4515233,10.517166 9.4522997,10.633017 9.4523284,10.748834 C 9.4530088,10.839874 9.4546712,10.930902 9.4556003,11.021939 C 9.4559019,11.103682 9.4507515,11.184889 9.4652319,11.265663 C 9.4885695,11.363505 9.513242,11.46121 9.5408438,11.558013 C 9.5636649,11.627184 9.5868446,11.695825 9.6197338,11.760919 C 9.6423692,11.823037 9.674091,11.831963 9.7289654,11.855717 C 9.8114415,11.887588 9.8947218,11.916953 9.9780591,11.946686 C 10.123911,11.987909 10.265205,12.042589 10.406969,12.095801 C 10.556961,12.150058 10.703755,12.214626 10.856646,12.260434 C 10.957995,12.290027 11.063134,12.295586 11.16795,12.298356 C 11.273357,12.300064 11.378774,12.298782 11.484189,12.298864 C 11.613669,12.282398 11.731876,12.228439 11.851484,12.180102 C 11.983822,12.126244 12.116353,12.073151 12.249506,12.021477 C 12.31754,11.992236 12.303774,11.999486 12.367723,11.966973 C 12.385736,11.957815 12.438958,11.928807 12.421472,11.938936 C 12.306657,12.005443 11.962194,12.204867 12.075691,12.136134 C 12.219667,12.048944 12.368476,11.969939 12.512933,11.883548 C 12.629974,11.813553 12.276278,12.019143 12.15795,12.08694 C 12.233141,12.039496 12.303183,11.986693 12.363862,11.921585 C 12.395538,11.887834 12.424521,11.852044 12.452071,11.814923 L 12.875354,11.63072 C 12.849406,11.670408 12.822172,11.708882 12.787991,11.742152 C 12.731155,11.813632 12.66434,11.870968 12.587587,11.919695 C 12.443611,12.003956 12.298268,12.085925 12.155658,12.172477 C 12.041074,12.24202 12.619756,11.904033 12.503494,11.970732 C 12.301437,12.086654 12.109916,12.218231 11.892486,12.301913 C 11.759615,12.354995 11.626025,12.406185 11.494045,12.46149 C 11.371785,12.51142 11.247129,12.56124 11.113609,12.568313 C 11.007399,12.569163 10.901168,12.569895 10.794974,12.567317 C 10.688234,12.562555 10.581844,12.551913 10.480198,12.516545 C 10.329834,12.465567 10.184694,12.400089 10.035174,12.346593 C 9.8910303,12.295846 9.7468852,12.245041 9.5999311,12.202901 C 9.5131986,12.174784 9.4263457,12.146817 9.341311,12.113852 C 9.2825845,12.088428 9.2388056,12.053224 9.2157276,11.991263 C 9.1810823,11.923198 9.1603917,11.850236 9.1363883,11.777955 C 9.1103457,11.679611 9.0847497,11.581206 9.0587286,11.482925 C 9.0408513,11.400145 9.0410498,11.316841 9.0426964,11.232387 C 9.0434031,11.140473 9.0446236,11.048563 9.0447426,10.956646 C 9.0441532,10.840171 9.0433741,10.723683 9.0465309,10.607232 C 9.0509691,10.477595 9.0580389,10.346604 9.0906459,10.220521 C 9.1268002,10.102072 9.1749504,9.9877896 9.2179648,9.8717204 C 9.272618,9.7406525 9.3290674,9.6108355 9.395289,9.4850482 C 9.475826,9.3093981 9.556042,9.1336641 9.6376986,8.9584984 C 9.6499353,8.9311863 9.6621721,8.9038742 9.6744089,8.8765621 C 9.6867669,8.8519793 9.7000574,8.8278435 9.711483,8.8028137 C 9.749562,8.7193947 9.7782772,8.6315244 9.8314766,8.5555073 C 9.8761177,8.489906 9.9189692,8.4219248 9.9683436,8.3597357 C 10.03825,8.2716857 10.119135,8.1929003 10.194162,8.1094095 C 10.241209,8.0564571 10.333632,7.9542507 10.375805,7.8991281 C 10.49293,7.7460398 10.590038,7.5777348 10.693421,7.4154918 C 10.831604,7.1828415 10.962326,6.9398882 11.022743,6.6740533 C 11.051647,6.5616857 11.08108,6.4490579 11.095394,6.3336264 C 11.107108,6.2391538 11.104517,6.2037924 11.105206,6.1076179 C 11.105499,6.0666275 11.105779,6.0256371 11.106065,5.9846467 C 11.107555,5.6934781 11.111403,5.4023285 11.112443,5.1111564 C 11.114554,4.7450858 11.118558,4.3787423 11.099366,4.0129997 C 11.079929,3.7154322 11.05607,3.4142244 10.94244,3.1349542 C 10.850019,2.9190071 10.761854,2.7572012 10.562607,2.6198066 C 10.233933,2.3916313 9.8903667,2.1844385 9.5361807,1.9983554 C 9.3330609,1.8945586 9.130337,1.7914133 8.9204587,1.7017246 C 8.8346382,1.6650503 8.6982813,1.6087916 8.6050141,1.5833653 C 8.5640209,1.5721898 8.521625,1.5670074 8.4799304,1.5588284 C 8.2054096,1.5302743 7.9288964,1.5462723 7.6534856,1.5519885 C 7.2968553,1.5686391 6.9404956,1.5992509 6.5903838,1.6723926 C 6.2860977,1.733888 5.9841099,1.8084692 5.6941995,1.921276 C 5.5163355,1.9883632 5.3392611,2.056923 5.173184,2.1505343 C 5.8387311,1.7630639 5.3619645,2.0320241 5.2185047,2.1413123 C 5.1377282,2.2016731 5.0621041,2.2695967 4.9982384,2.3479159 C 4.9128504,2.4395679 4.8375467,2.5389329 4.7759162,2.6483346 C 4.7056265,2.7817507 4.6368984,2.9163653 4.5927187,3.0612095 C 4.559121,3.176748 4.5288901,3.2962932 4.5300393,3.4173933 C 4.5273744,3.5586954 4.5241737,3.6999841 4.5207019,3.8412683 C 4.5155102,4.1501843 4.511239,4.4591532 4.513445,4.7681189 C 4.5153314,5.0801701 4.514808,5.3933695 4.5498633,5.7038547 C 4.5613068,5.7746166 4.5633354,5.8020678 4.5822318,5.8681363 C 4.6043294,5.9453974 4.6435349,6.0164393 4.6655365,6.0937889 C 4.7297777,6.2968735 4.7879492,6.5017586 4.8523804,6.7047958 C 4.9777056,7.0875822 5.1077075,7.4701412 5.295687,7.8277279 C 5.5057341,8.2412236 5.7436613,8.6453374 5.875321,9.0929685 C 5.9844431,9.4518741 6.0884849,9.8171515 6.0926957,10.195305 C 6.0799748,10.522382 6.061281,10.851522 5.9097833,11.149368 C 5.8816738,11.199291 5.8567667,11.251158 5.8254548,11.299137 C 5.6571439,11.557039 5.414546,11.759136 5.15942,11.926022 C 4.8888833,12.082061 4.7009576,12.19512 4.449524,12.330815 C 4.2864861,12.418804 4.1213892,12.507129 3.9424082,12.558959 C 3.8956356,12.572503 3.8472469,12.579668 3.7996663,12.590023 C 3.6081814,12.60687 3.4115157,12.608517 3.2269782,12.547053 C 3.1996492,12.534761 3.1713561,12.52442 3.1449913,12.510177 C 2.9408748,12.399907 2.7962585,12.208052 2.6472409,12.036796 C 2.5137247,11.860554 2.3849166,11.684083 2.2705732,11.494503 C 2.2235277,11.416502 2.1279933,11.249761 2.0890229,11.160505 C 2.070735,11.118619 2.0587074,11.07427 2.0435497,11.031152 C 2.034995,10.994696 2.0246455,10.958614 2.0178857,10.921782 C 2.0003319,10.826137 2.0079972,10.728947 2.0010528,10.632491 L 2.4183646,10.41986 z" />
    <path
       style="opacity:1;fill:#803300;fill-opacity:1;fill-rule:nonzero;stroke:#5e0300;stroke-width:0.30000001;stroke-linecap:round;stroke-linejoin:miter;stroke-miterlimit:4;stroke-dasharray:none;stroke-opacity:1"
       id="path3157"
       d="M 6.9956184,10.609264 C 6.9874364,10.762819 6.9866392,10.916688 6.9844042,11.070417 C 6.9903138,11.286074 6.9803674,11.499813 6.9465086,11.712763 C 6.9080669,11.870008 6.858472,12.024853 6.8039619,12.177289 C 6.7543355,12.327114 6.6931488,12.470933 6.6164299,12.608759 C 6.5318849,12.749474 6.4386767,12.884588 6.3478023,13.021193 C 6.2705564,13.143246 6.1788846,13.253821 6.0806019,13.359222 C 6.0230831,13.427385 5.9579106,13.487475 5.8845469,13.537931 C 5.6689159,13.675221 5.4454024,13.799892 5.2172509,13.914914 C 5.1196576,13.957594 5.0155899,13.981236 4.9139612,14.011523 C 4.8565789,14.029766 4.7968082,14.037815 4.7372725,14.045133 L 5.1073053,13.768446 C 5.1652253,13.759523 5.2226566,13.748287 5.2787036,13.730787 C 5.3796384,13.703548 5.480835,13.674377 5.5752551,13.628738 C 5.723527,13.556423 5.9566287,13.418419 5.3294878,13.781442 C 5.300357,13.798304 5.3872786,13.746916 5.4162487,13.729779 C 5.4289731,13.722252 5.4414805,13.714364 5.4540964,13.706657 C 5.5287942,13.657111 5.6025549,13.605986 5.65904,13.534992 C 5.7601637,13.431434 5.8562602,13.323923 5.9352924,13.202103 C 6.0234595,13.065097 6.1182706,12.932386 6.2031005,12.793175 C 6.2813208,12.657704 6.3468388,12.517589 6.3949241,12.368361 C 6.4486708,12.217035 6.4983792,12.064036 6.5428196,11.909789 C 6.5518229,11.861925 6.569109,11.77335 6.5753204,11.726178 C 6.5951841,11.575328 6.5905134,11.423323 6.5895208,11.271621 C 6.5873084,11.121702 6.5866276,10.971627 6.5783066,10.821895 L 6.9956184,10.609264 z" />
    <path
       style="opacity:1;fill:#803300;fill-opacity:1;fill-rule:nonzero;stroke:#5e0300;stroke-width:0.30000001;stroke-linecap:round;stroke-linejoin:miter;stroke-miterlimit:4;stroke-dasharray:none;stroke-opacity:1"
       id="path3159"
       d="M 8.2599009,10.352652 C 8.2895159,10.508212 8.3422071,10.658639 8.3790935,10.812814 C 8.4192363,10.989627 8.4474428,11.16858 8.4862071,11.345708 C 8.5145322,11.466605 8.5290538,11.589331 8.5353815,11.713115 C 8.5391156,11.850131 8.5361975,11.987237 8.5361624,12.124293 C 8.5361942,12.255508 8.5374186,12.386713 8.5374463,12.517928 C 8.538579,12.624501 8.5380085,12.73108 8.5385096,12.837655 C 8.5387194,12.933051 8.539219,13.028455 8.5390373,13.123852 C 8.5381699,13.208915 8.5363277,13.293684 8.5477328,13.378076 C 8.5646885,13.452037 8.5869432,13.52457 8.6069345,13.597736 C 8.628381,13.672705 8.6588356,13.744879 8.7038378,13.808724 C 8.7455163,13.858936 8.8035381,13.869416 8.8650416,13.874659 C 8.9063702,13.877021 8.9477838,13.876532 8.9891562,13.87627 L 8.6130226,14.149464 C 8.5703717,14.149075 8.5275829,14.148814 8.4852417,14.142963 C 8.4132423,14.130102 8.3498581,14.104 8.3049875,14.043019 C 8.2590745,13.973767 8.2225955,13.8986 8.1999164,13.818528 C 8.1808096,13.743377 8.156847,13.669599 8.1377608,13.594422 C 8.1244755,13.507601 8.1287299,13.420698 8.1284769,13.333043 C 8.128292,13.237467 8.1287883,13.141886 8.1289978,13.046311 C 8.1295042,12.939336 8.1289447,12.832357 8.1302133,12.725385 C 8.1304374,12.593545 8.1320529,12.461722 8.1325455,12.329883 C 8.1328463,12.194273 8.1319681,12.058664 8.1278375,11.923105 C 8.1229947,11.800995 8.1125475,11.679144 8.0876991,11.559248 C 8.0519831,11.381318 8.0264542,11.201725 7.9860613,11.024783 C 7.9496584,10.871006 7.8992274,10.722352 7.8469573,10.57343 L 8.2599009,10.352652 z" />
    <path
       style="opacity:1;fill:#803300;fill-opacity:1;fill-rule:nonzero;stroke:#5e0300;stroke-width:0.30000001;stroke-linecap:round;stroke-linejoin:miter;stroke-miterlimit:4;stroke-dasharray:none;stroke-opacity:1"
       id="path3161"
       d="M 7.5953964,10.388293 C 7.5879734,10.527864 7.5874638,10.667755 7.586318,10.807496 C 7.5858622,10.99089 7.5873958,11.174283 7.586452,11.357675 C 7.5869223,11.523505 7.5882458,11.689328 7.5880816,11.85516 C 7.5867009,12.046842 7.5848297,12.238526 7.5853882,12.430214 C 7.5817739,12.630894 7.5216855,12.823003 7.4634799,13.013175 C 7.4060382,13.198925 7.3500994,13.385007 7.284185,13.567984 C 7.232164,13.700017 7.181179,13.834153 7.1082484,13.956334 C 7.055317,14.045946 6.9847519,14.12023 6.9068417,14.188165 C 6.795022,14.275906 6.6748647,14.352179 6.5577108,14.432489 C 6.4902052,14.477487 6.4207826,14.519476 6.3518548,14.562228 L 5.9248221,14.727915 C 5.9945935,14.683796 6.0655741,14.641645 6.1357083,14.598098 C 6.2518086,14.519468 6.3684366,14.441703 6.4821195,14.359687 C 6.5612288,14.296323 6.6338852,14.22676 6.6884132,14.140407 C 6.771874,14.024497 6.821764,13.887466 6.8779323,13.757121 C 6.9472223,13.575554 7.0017806,13.389761 7.0592759,13.204282 C 7.1160418,13.017289 7.1815912,12.829853 7.1880928,12.632646 C 7.188647,12.441873 7.1867926,12.251104 7.1853994,12.060337 C 7.1852345,11.893951 7.1865615,11.727575 7.187029,11.561191 C 7.18608,11.377754 7.1876232,11.194315 7.187163,11.010875 C 7.186033,10.874221 7.1856426,10.737398 7.1780846,10.600924 L 7.5953964,10.388293 z" />
    <path
       style="opacity:1;fill:#aa4400;fill-opacity:1;fill-rule:nonzero;stroke:none;stroke-width:0.00947018000000000;stroke-linecap:round;stroke-linejoin:miter;stroke-miterlimit:4;stroke-dasharray:none;stroke-opacity:1"
       d="M 6.7461806,10.215098 C 6.7461749,9.8551124 6.7014596,9.5855661 6.5563493,9.0707845 C 6.4377836,8.6501699 6.3209345,8.372675 5.9764728,7.6936855 C 5.7630604,7.2730132 5.664639,7.0261249 5.4554633,6.3867306 L 5.1975713,5.5984217 L 5.1803968,4.9670581 C 5.1709503,4.619808 5.1752763,4.0937581 5.19001,3.7980581 C 5.214594,3.3046765 5.223953,3.2457973 5.3037226,3.0827542 C 5.4417757,2.8005858 5.5892516,2.6716613 5.90443,2.5576163 C 6.5004206,2.3419614 7.0354643,2.2448993 7.789224,2.2156948 C 8.4173104,2.1913596 8.4426409,2.1976583 9.129515,2.5489732 C 9.6686637,2.8247313 10.190958,3.1524065 10.260484,3.2585154 C 10.286402,3.2980717 10.33249,3.4074637 10.362902,3.5016089 C 10.410793,3.6498671 10.42002,3.8444856 10.431819,4.9554019 C 10.44493,6.1898493 10.442911,6.2472452 10.378066,6.4836061 C 10.274287,6.8618899 9.9993131,7.32708 9.6469416,7.7205013 C 9.5415906,7.8381247 9.4015977,8.0126576 9.3358465,8.1083512 C 9.1755602,8.3416302 8.5680485,9.6714379 8.4696249,10.00446 C 8.4264052,10.150694 8.3902885,10.238379 8.3893645,10.199314 C 8.3884405,10.16025 8.3733438,10.128288 8.355817,10.128288 C 8.3382906,10.128288 8.2057238,10.192212 8.061225,10.270341 C 7.9167255,10.34847 7.7890141,10.412393 7.7774198,10.412393 C 7.7658258,10.412393 7.7563388,10.348327 7.7563388,10.270024 L 7.7563388,10.127654 L 7.4655633,10.273691 C 7.2941805,10.359764 7.1700687,10.405566 7.1632934,10.38524 C 7.1562609,10.364141 7.0795505,10.387225 6.965676,10.444708 C 6.8633094,10.496383 6.7720462,10.538662 6.7628702,10.538662 C 6.7536946,10.538662 6.7461838,10.393058 6.7461809,10.215098 L 6.7461806,10.215098 z"
       id="path3163" />
  </g>
</svg>
