<?xml version="1.0" encoding="UTF-8" standalone="no"?>
<!-- Created with Inkscape (http://www.inkscape.org/) -->
<svg
   xmlns:dc="http://purl.org/dc/elements/1.1/"
   xmlns:cc="http://creativecommons.org/ns#"
   xmlns:rdf="http://www.w3.org/1999/02/22-rdf-syntax-ns#"
   xmlns:svg="http://www.w3.org/2000/svg"
   xmlns="http://www.w3.org/2000/svg"
   xmlns:sodipodi="http://sodipodi.sourceforge.net/DTD/sodipodi-0.dtd"
   xmlns:inkscape="http://www.inkscape.org/namespaces/inkscape"
   width="16"
   height="16"
   id="svg2"
   sodipodi:version="0.32"
   inkscape:version="0.46"
   version="1.0"
   sodipodi:docname="eliminate.svg"
   inkscape:output_extension="org.inkscape.output.svg.inkscape">
  <defs
     id="defs4">
    <inkscape:perspective
       sodipodi:type="inkscape:persp3d"
       inkscape:vp_x="0 : 526.18109 : 1"
       inkscape:vp_y="0 : 1000 : 0"
       inkscape:vp_z="744.09448 : 526.18109 : 1"
       inkscape:persp3d-origin="372.04724 : 350.78739 : 1"
       id="perspective10" />
  </defs>
  <sodipodi:namedview
     id="base"
     pagecolor="#ffffff"
     bordercolor="#666666"
     borderopacity="1.0"
     inkscape:pageopacity="0.0"
     inkscape:pageshadow="2"
     inkscape:zoom="44.8"
     inkscape:cx="9.1641361"
     inkscape:cy="8.312855"
     inkscape:document-units="px"
     inkscape:current-layer="layer1"
     showgrid="false"
     inkscape:window-width="1277"
     inkscape:window-height="1003"
     inkscape:window-x="-4"
     inkscape:window-y="-4" />
  <metadata
     id="metadata7">
    <rdf:RDF>
      <cc:Work
         rdf:about="">
        <dc:format>image/svg+xml</dc:format>
        <dc:type
           rdf:resource="http://purl.org/dc/dcmitype/StillImage" />
      </cc:Work>
    </rdf:RDF>
  </metadata>
  <g
     inkscape:label="Capa 1"
     inkscape:groupmode="layer"
     id="layer1">
    <rect
       style="opacity:1;fill:#e4e4e4;fill-opacity:1;fill-rule:nonzero;stroke:#182715;stroke-width:1.3;stroke-linecap:round;stroke-linejoin:miter;stroke-miterlimit:4;stroke-dasharray:none;stroke-opacity:1"
       id="rect2393"
       width="10.022322"
       height="10.223214"
       x="1.9642857"
       y="2.7857141"
       rx="0.60000002"
       ry="0.60000002" />
    <path
       style="opacity:1;fill:#ff0000;fill-opacity:1;fill-rule:nonzero;stroke:#e52613;stroke-width:1.29999995;stroke-linecap:round;stroke-linejoin:miter;stroke-miterlimit:4;stroke-dasharray:none;stroke-opacity:1"
       id="path3181"
       d="M 6.6874941,0.85802559 C 6.7762742,0.86686981 6.8683298,0.8514912 6.9561974,0.87023253 C 6.9977902,0.87910387 7.0376394,0.89476513 7.0783604,0.90703142 C 7.1380941,0.93937581 7.2005697,0.96710236 7.2575615,1.0040646 C 7.5972286,1.2243567 7.8854341,1.5228963 8.1574673,1.8190257 C 8.5126543,2.2056746 8.6486214,2.3869592 8.9886147,2.8053054 C 9.8492712,3.9177069 10.702256,5.0367971 11.524716,6.1778917 C 11.661756,6.3680235 11.795982,6.5601679 11.931615,6.751306 C 12.43752,7.4699553 12.904262,8.2151513 13.414696,8.9305633 C 13.45669,8.9863272 13.498684,9.0420911 13.540678,9.0978551 L 13.301154,9.238707 C 13.264142,9.179843 13.227131,9.1209791 13.190119,9.0621151 C 12.729353,8.3160905 12.280091,7.5629492 11.808034,6.8239283 C 11.456828,6.2922438 11.352477,6.1250323 10.973299,5.5913571 C 10.309917,4.6576776 9.6069451,3.7518173 8.8634356,2.8805571 C 8.5321029,2.50127 8.3426648,2.2695012 7.9913185,1.9210973 C 7.7020047,1.6342063 7.3890735,1.3484277 7.0251805,1.1576061 C 6.9633053,1.1251594 6.8961476,1.1039794 6.8316312,1.077166 C 6.7890953,1.0684979 6.7470643,1.0568112 6.7040233,1.0511618 C 6.610196,1.0388463 6.5137282,1.0543368 6.4195634,1.0526886 L 6.6874941,0.85802559 z" />
    <path
       style="opacity:1;fill:#ff0000;fill-opacity:1;fill-rule:nonzero;stroke:#e52613;stroke-width:1.29999995;stroke-linecap:round;stroke-linejoin:miter;stroke-miterlimit:4;stroke-dasharray:none;stroke-opacity:1"
       id="path3183"
       d="M 5.6248771,7.8721268 C 5.7164847,8.0071742 5.8318624,8.1232568 5.9675074,8.2144725 C 6.0062545,8.2405283 6.0475725,8.2625408 6.087605,8.2865749 C 6.3673612,8.4167493 6.6826191,8.4706182 6.9803656,8.3615565 C 7.0763003,8.3264166 7.165145,8.2743229 7.2575347,8.2307061 C 7.443112,8.0484966 7.6457144,7.8834003 7.825055,7.6949393 C 8.1486669,7.35487 8.5742502,6.8181307 8.8497574,6.4563353 C 9.3042942,5.8594385 9.5914615,5.4386191 10.025271,4.8221047 C 10.806417,3.6924645 11.563377,2.5459166 12.290204,1.3805612 C 12.460713,1.1012963 12.382535,1.2302866 12.525106,0.99381299 L 12.782507,0.8807607 C 12.611494,1.1293101 12.70463,0.99383093 12.503162,1.2872422 C 11.693326,2.4575691 10.880518,3.6258355 10.076182,4.7999593 C 9.541516,5.5722421 9.0142032,6.3520421 8.4339065,7.0913988 C 8.2318118,7.3488879 7.8759893,7.791648 7.6061445,8.0121782 C 7.4361394,8.1511145 7.2442784,8.2609211 7.0633453,8.3852925 C 6.9641902,8.4318875 6.8688131,8.4875599 6.7658798,8.5250775 C 6.4565088,8.6378386 6.1301628,8.5804677 5.8389852,8.4474746 C 5.7978913,8.4229516 5.7556359,8.4002775 5.7157034,8.3739055 C 5.5762914,8.2818362 5.4576876,8.1657023 5.3446633,8.043842 L 5.6248771,7.8721268 z" />
  </g>
</svg>
